<?xml version="1.0" encoding="UTF-8"?>
<svg width="700pt" height="700pt" version="1.1" viewBox="0 0 700 700" xmlns="http://www.w3.org/2000/svg">
 <g>
  <path fill="#dfdfdf" d="m455 192.5c0 19.328-15.672 35-35 35s-35-15.672-35-35 15.672-35 35-35 35 15.672 35 35"/>
  <path fill="#dfdfdf" d="m270.22 282.99c3.3672-2.2695 7.418-3.2969 11.461-2.9102 4.0391 0.39062 7.8203 2.1758 10.691 5.0469l76.422 76.422 75.25-60.219h0.003906c2.9492-2.375 6.5938-3.7266 10.383-3.8516 3.7852-0.125 7.5117 0.98047 10.617 3.1523l129.95 90.441v-303.57c0-13.926-5.5312-27.277-15.375-37.125-9.8477-9.8438-23.199-15.375-37.125-15.375h-385c-13.926 0-27.277 5.5312-37.125 15.375-9.8438 9.8477-15.375 23.199-15.375 37.125v306.86zm149.78-160.49c18.566 0 36.371 7.375 49.496 20.504 13.129 13.125 20.504 30.93 20.504 49.496s-7.375 36.371-20.504 49.496c-13.125 13.129-30.93 20.504-49.496 20.504s-36.371-7.375-49.496-20.504c-13.129-13.125-20.504-30.93-20.504-49.496s7.375-36.371 20.504-49.496c13.125-13.129 30.93-20.504 49.496-20.504z"/>
  <path fill="#dfdfdf" d="m455.73 336.82-61.984 49.629 21.176 21.176c4.293 4.4453 5.9219 10.824 4.2891 16.785-1.6328 5.957-6.2891 10.613-12.25 12.25-5.9609 1.6328-12.34 0-16.785-4.293l-112.37-112.3-172.81 116.5v35.926c0 13.926 5.5312 27.277 15.375 37.125 9.8477 9.8438 23.199 15.375 37.125 15.375h385c13.926 0 27.277-5.5312 37.125-15.375 9.8438-9.8477 15.375-23.199 15.375-37.125v-38.816z"/>
 </g>
</svg>
