<?xml version="1.0" encoding="utf-8"?>
<!-- Generator: Adobe Illustrator 26.1.0, SVG Export Plug-In . SVG Version: 6.00 Build 0)  -->
<svg version="1.1" id="a" xmlns="http://www.w3.org/2000/svg" xmlns:xlink="http://www.w3.org/1999/xlink" x="0px" y="0px"
	 viewBox="0 0 88 88" style="enable-background:new 0 0 88 88;" xml:space="preserve">
<style type="text/css">
	.st0{fill-rule:evenodd;clip-rule:evenodd;fill:#FFFFFF;}
</style>
<path class="st0" d="M70.7,71.6H43v4.8h27.7c1.3,0,2.4-1.1,2.4-2.4S72,71.6,70.7,71.6L70.7,71.6z"/>
<path class="st0" d="M81.3,20.8H43v47.7h38.4c3.2,0,5.8-2.6,5.8-5.8v-36C87.2,23.4,84.6,20.8,81.3,20.8z"/>
<path class="st0" d="M35.3,6.2h-30c-2.5,0-4.6,2-4.6,4.6v66.5c0,2.5,2,4.6,4.6,4.6h29.9c2.5,0,4.6-2,4.6-4.6V10.7
	C39.9,8.2,37.8,6.2,35.3,6.2L35.3,6.2z M20.4,71.6c-3,0-5.4-2.4-5.4-5.4s2.4-5.5,5.4-5.5s5.5,2.4,5.5,5.5S23.4,71.6,20.4,71.6z
	 M32.9,36.3c0,1-0.8,1.8-1.8,1.8H9.9c-1,0-1.8-0.8-1.8-1.8v-4.1c0-1,0.8-1.8,1.8-1.8h21.2c1,0,1.8,0.8,1.8,1.8
	C32.9,32.2,32.9,36.3,32.9,36.3z M32.9,24.8c0,1-0.8,1.8-1.8,1.8H9.9c-1,0-1.8-0.8-1.8-1.8v-4.1c0-1,0.8-1.8,1.8-1.8h21.2
	c1,0,1.8,0.8,1.8,1.8C32.9,20.6,32.9,24.8,32.9,24.8z"/>
</svg>
